# This file uses centimeters as units for non-parametric coordinates.

mtllib Pilha_gg.mtl
g default
v -6.034467 -0.003349 -1.145634
v -6.561057 -0.003349 -2.179125
v -7.381241 -0.003349 -2.999309
v -8.414732 -0.003349 -3.525898
v -9.560367 -0.003349 -3.707349
v -10.705998 -0.003349 -3.525898
v -11.739491 -0.003349 -2.999308
v -12.559671 -0.003349 -2.179124
v -13.086263 -0.003349 -1.145633
v -13.267714 -0.003349 0.000000
v -13.086263 -0.003349 1.145634
v -12.559671 -0.003349 2.179124
v -11.739491 -0.003349 2.999307
v -10.705998 -0.003349 3.525897
v -9.560367 -0.003349 3.707348
v -8.414733 -0.003349 3.525897
v -7.381242 -0.003349 2.999307
v -6.561059 -0.003349 2.179124
v -6.034470 -0.003349 1.145633
v -5.853019 -0.003349 0.000000
v -9.560367 -0.003349 0.000000
v -9.560367 8.359161 -0.000000
v -7.814086 7.459560 -0.567401
v -8.074891 7.459560 -1.079261
v -8.481106 7.459560 -1.485475
v -8.992965 7.459560 -1.746280
v -9.560367 7.459560 -1.836148
v -10.127767 7.459560 -1.746280
v -10.639627 7.459560 -1.485475
v -11.045841 7.459560 -1.079261
v -11.306646 7.459560 -0.567401
v -11.396513 7.459560 -0.000000
v -11.306646 7.459560 0.567401
v -11.045841 7.459560 1.079260
v -10.639627 7.459560 1.485474
v -10.127767 7.459560 1.746280
v -9.560367 7.459560 1.836147
v -8.992965 7.459560 1.746279
v -8.481106 7.459560 1.485474
v -8.074891 7.459560 1.079260
v -7.814087 7.459560 0.567401
v -7.724219 7.459560 -0.000000
v -8.070458 7.999357 -0.484101
v -8.532283 8.359161 -0.334046
v -7.993785 7.999356 -0.000001
v -8.479376 8.359161 -0.000001
v -8.292973 7.999357 -0.920814
v -8.685826 8.359161 -0.635391
v -8.639552 7.999356 -1.267392
v -8.924976 8.359161 -0.874540
v -9.076265 7.999356 -1.489908
v -9.226321 8.359161 -1.028083
v -9.560367 7.999357 -1.566582
v -9.560367 8.359161 -1.080991
v -10.044467 7.999356 -1.489908
v -9.894411 8.359161 -1.028083
v -10.481180 7.999356 -1.267391
v -10.195757 8.359161 -0.874540
v -10.827757 7.999356 -0.920814
v -10.434904 8.359161 -0.635391
v -11.050270 7.999357 -0.484100
v -10.588448 8.359161 -0.334045
v -11.126946 7.999356 -0.000000
v -10.641356 8.359161 -0.000000
v -11.050270 7.999358 0.484100
v -10.588448 8.359161 0.334044
v -10.827757 7.999356 0.920813
v -10.434904 8.359161 0.635390
v -10.481180 7.999356 1.267391
v -10.195757 8.359161 0.874539
v -10.044467 7.999356 1.489907
v -9.894411 8.359161 1.028082
v -9.560367 7.999357 1.566581
v -9.560367 8.359161 1.080989
v -9.076265 7.999356 1.489907
v -9.226321 8.359161 1.028082
v -8.639552 7.999356 1.267391
v -8.924976 8.359161 0.874539
v -8.292975 7.999357 0.920813
v -8.685827 8.359161 0.635390
v -8.070459 7.999356 0.484100
v -8.532284 8.359161 0.334044
vt 0.621676 0.013239
vt 0.561204 0.003321
vt 0.693897 0.539803
vt 0.680722 0.029638
vt 0.737648 0.052326
vt 0.791786 0.081036
vt 0.842503 0.115432
vt 0.889203 0.155110
vt 0.931339 0.199605
vt 0.968416 0.248396
vt 0.000000 0.300864
vt 0.031589 0.248353
vt 0.068671 0.199565
vt 0.110810 0.155074
vt 0.157514 0.115400
vt 0.208234 0.081009
vt 0.262375 0.052304
vt 0.319303 0.029621
vt 0.378350 0.013228
vt 0.438823 0.003315
vt 0.500014 0.000000
vt 0.143912 0.618055
vt 0.176025 0.607615
vt 0.110145 0.618061
vt 0.078029 0.607632
vt 0.050707 0.587789
vt 0.030854 0.560474
vt 0.020414 0.528362
vt 0.020408 0.494594
vt 0.030837 0.462478
vt 0.050680 0.435156
vt 0.077994 0.415303
vt 0.110107 0.404863
vt 0.143874 0.404857
vt 0.175991 0.415286
vt 0.203313 0.435129
vt 0.223166 0.462444
vt 0.233606 0.494557
vt 0.233612 0.528324
vt 0.223183 0.560440
vt 0.203340 0.587762
vt 0.165345 0.586299
vt 0.152592 0.561196
vt 0.166709 0.550856
vt 0.186596 0.570790
vt 0.140342 0.594482
vt 0.135970 0.566667
vt 0.176940 0.536660
vt 0.202013 0.549473
vt 0.114034 0.594539
vt 0.118472 0.566733
vt 0.088996 0.586463
vt 0.101809 0.561390
vt 0.067679 0.571045
vt 0.087613 0.551158
vt 0.052170 0.549794
vt 0.077273 0.537041
vt 0.043987 0.524791
vt 0.071802 0.520419
vt 0.043930 0.498483
vt 0.071735 0.502921
vt 0.052006 0.473446
vt 0.077079 0.486258
vt 0.067424 0.452129
vt 0.087311 0.472062
vt 0.088675 0.436619
vt 0.101428 0.461722
vt 0.113678 0.428436
vt 0.118050 0.456251
vt 0.139986 0.428379
vt 0.135548 0.456185
vt 0.165024 0.436455
vt 0.152211 0.461528
vt 0.186340 0.451873
vt 0.166407 0.471760
vt 0.201850 0.473124
vt 0.176747 0.485877
vt 0.210033 0.498127
vt 0.182217 0.502499
vt 0.210089 0.524435
vt 0.182284 0.519997
vt 0.127010 0.511459
vt 0.674960 0.598085
vt 1.000000 0.300910
vt 0.252358 0.434626
vt 0.747630 0.434649
vt 0.469695 0.287258
vt 0.500001 0.285616
vt 0.439744 0.292167
vt 0.410500 0.300287
vt 0.382305 0.311521
vt 0.355490 0.325737
vt 0.330370 0.342770
vt 0.307239 0.362420
vt 0.286368 0.384455
vt 0.268003 0.408618
vt 0.731987 0.408640
vt 0.713624 0.384475
vt 0.692755 0.362438
vt 0.669626 0.342786
vt 0.644508 0.325751
vt 0.617694 0.311531
vt 0.589500 0.300295
vt 0.560257 0.292173
vt 0.530307 0.287261
vt 0.500443 0.509163
vt 0.693897 0.478523
vt 0.674960 0.420242
vt 0.638940 0.370665
vt 0.589364 0.334646
vt 0.531083 0.315709
vt 0.469802 0.315709
vt 0.411521 0.334646
vt 0.361945 0.370665
vt 0.325925 0.420242
vt 0.306989 0.478523
vt 0.306988 0.539803
vt 0.325925 0.598084
vt 0.361945 0.647661
vt 0.411521 0.683681
vt 0.469802 0.702617
vt 0.531083 0.702617
vt 0.589364 0.683681
vt 0.638940 0.647661
vn 0.000000 -1.000000 0.000000
vn 0.000000 -1.000000 0.000000
vn 0.000000 -1.000000 0.000000
vn 0.000000 -1.000000 0.000000
vn 0.000000 -1.000000 0.000000
vn 0.000000 -1.000000 0.000000
vn 0.000000 -1.000000 0.000000
vn 0.000000 -1.000000 0.000000
vn 0.000000 -1.000000 0.000000
vn 0.000000 -1.000000 0.000000
vn 0.000000 -1.000000 0.000000
vn 0.000000 -1.000000 0.000000
vn 0.000000 -1.000000 0.000000
vn 0.000000 -1.000000 0.000000
vn 0.000000 -1.000000 0.000000
vn 0.000000 -1.000000 0.000000
vn 0.000000 -1.000000 0.000000
vn 0.000000 -1.000000 0.000000
vn 0.000000 -1.000000 0.000000
vn 0.000000 -1.000000 0.000000
vn 0.000000 -1.000000 0.000000
vn 0.922501 0.243205 -0.299738
vn 0.784726 0.243205 -0.570137
vn 0.782911 0.251983 -0.568819
vn 0.920368 0.251983 -0.299045
vn 0.570137 0.243205 -0.784726
vn 0.568818 0.251983 -0.782912
vn 0.299738 0.243205 -0.922501
vn 0.299045 0.251983 -0.920368
vn 0.000000 0.243205 -0.969975
vn 0.000000 0.251983 -0.967732
vn -0.299739 0.243205 -0.922501
vn -0.299046 0.251983 -0.920367
vn -0.570137 0.243205 -0.784726
vn -0.568819 0.251983 -0.782911
vn -0.784726 0.243205 -0.570137
vn -0.782912 0.251983 -0.568818
vn -0.922501 0.243205 -0.299739
vn -0.920367 0.251983 -0.299046
vn -0.969975 0.243205 0.000000
vn -0.967732 0.251983 -0.000000
vn -0.922501 0.243205 0.299739
vn -0.920367 0.251983 0.299046
vn -0.784726 0.243205 0.570137
vn -0.782911 0.251983 0.568818
vn -0.570137 0.243205 0.784726
vn -0.568818 0.251983 0.782911
vn -0.299739 0.243205 0.922501
vn -0.299045 0.251983 0.920368
vn 0.000000 0.243205 0.969975
vn 0.000000 0.251983 0.967732
vn 0.299739 0.243205 0.922501
vn 0.299045 0.251983 0.920368
vn 0.570137 0.243205 0.784726
vn 0.568818 0.251983 0.782912
vn 0.784726 0.243205 0.570137
vn 0.782912 0.251983 0.568818
vn 0.922501 0.243205 0.299738
vn 0.920368 0.251983 0.299045
vn 0.969975 0.243205 0.000001
vn 0.967732 0.251983 0.000001
vn 0.756603 0.605902 -0.245834
vn 0.370634 0.920939 -0.120425
vn 0.389708 0.920939 0.000001
vn 0.795539 0.605902 0.000001
vn 0.643605 0.605902 -0.467606
vn 0.315279 0.920939 -0.229064
vn 0.370633 0.920939 0.120426
vn 0.756603 0.605903 0.245834
vn 0.467606 0.605902 -0.643605
vn 0.229064 0.920939 -0.315280
vn 0.245835 0.605902 -0.756603
vn 0.120426 0.920939 -0.370634
vn -0.000000 0.605903 -0.795539
vn -0.000000 0.920939 -0.389707
vn -0.245835 0.605903 -0.756602
vn -0.120426 0.920939 -0.370634
vn -0.467606 0.605902 -0.643604
vn -0.229065 0.920938 -0.315280
vn -0.643605 0.605903 -0.467605
vn -0.315281 0.920939 -0.229063
vn -0.756602 0.605904 -0.245835
vn -0.370634 0.920938 -0.120426
vn -0.795539 0.605903 -0.000000
vn -0.389708 0.920938 -0.000000
vn -0.756601 0.605904 0.245835
vn -0.370634 0.920939 0.120426
vn -0.643605 0.605903 0.467605
vn -0.315280 0.920939 0.229064
vn -0.467606 0.605902 0.643604
vn -0.229065 0.920938 0.315280
vn -0.245835 0.605902 0.756602
vn -0.120426 0.920939 0.370634
vn 0.000000 0.605903 0.795539
vn 0.000000 0.920939 0.389707
vn 0.245835 0.605902 0.756602
vn 0.120426 0.920939 0.370634
vn 0.467606 0.605902 0.643605
vn 0.229064 0.920938 0.315281
vn 0.643605 0.605903 0.467605
vn 0.315280 0.920939 0.229064
vn 0.000000 1.000000 -0.000000
s 1
g pCylinder4
usemtl initialShadingGroup
f 2/3/1 1/83/2 21/106/3
f 3/107/4 2/3/1 21/106/3
f 4/108/5 3/107/4 21/106/3
f 5/109/6 4/108/5 21/106/3
f 6/110/7 5/109/6 21/106/3
f 7/111/8 6/110/7 21/106/3
f 8/112/9 7/111/8 21/106/3
f 9/113/10 8/112/9 21/106/3
f 10/114/11 9/113/10 21/106/3
f 11/115/12 10/114/11 21/106/3
f 12/116/13 11/115/12 21/106/3
f 13/117/14 12/116/13 21/106/3
f 14/118/15 13/117/14 21/106/3
f 15/119/16 14/118/15 21/106/3
f 16/120/17 15/119/16 21/106/3
f 17/121/18 16/120/17 21/106/3
f 18/122/19 17/121/18 21/106/3
f 19/123/20 18/122/19 21/106/3
f 20/124/21 19/123/20 21/106/3
f 1/83/2 20/124/21 21/106/3
s 2
f 1/2/22 2/1/23 24/104/24 23/105/25
f 2/1/23 3/4/26 25/103/27 24/104/24
f 3/4/26 4/5/28 26/102/29 25/103/27
f 4/5/28 5/6/30 27/101/31 26/102/29
f 5/6/30 6/7/32 28/100/33 27/101/31
f 6/7/32 7/8/34 29/99/35 28/100/33
f 7/8/34 8/9/36 30/98/37 29/99/35
f 8/9/36 9/10/38 31/97/39 30/98/37
f 9/10/38 10/84/40 32/86/41 31/97/39
f 10/11/40 11/12/42 33/96/43 32/85/41
f 11/12/42 12/13/44 34/95/45 33/96/43
f 12/13/44 13/14/46 35/94/47 34/95/45
f 13/14/46 14/15/48 36/93/49 35/94/47
f 14/15/48 15/16/50 37/92/51 36/93/49
f 15/16/50 16/17/52 38/91/53 37/92/51
f 16/17/52 17/18/54 39/90/55 38/91/53
f 17/18/54 18/19/56 40/89/57 39/90/55
f 18/19/56 19/20/58 41/87/59 40/89/57
f 19/20/58 20/21/60 42/88/61 41/87/59
f 20/21/60 1/2/22 23/105/25 42/88/61
f 43/42/62 44/43/63 46/44/64 45/45/65
f 44/43/63 43/42/62 47/46/66 48/47/67
f 45/45/65 46/44/64 82/48/68 81/49/69
f 48/47/67 47/46/66 49/50/70 50/51/71
f 50/51/71 49/50/70 51/52/72 52/53/73
f 52/53/73 51/52/72 53/54/74 54/55/75
f 54/55/75 53/54/74 55/56/76 56/57/77
f 56/57/77 55/56/76 57/58/78 58/59/79
f 58/59/79 57/58/78 59/60/80 60/61/81
f 60/61/81 59/60/80 61/62/82 62/63/83
f 62/63/83 61/62/82 63/64/84 64/65/85
f 64/65/85 63/64/84 65/66/86 66/67/87
f 66/67/87 65/66/86 67/68/88 68/69/89
f 68/69/89 67/68/88 69/70/90 70/71/91
f 70/71/91 69/70/90 71/72/92 72/73/93
f 72/73/93 71/72/92 73/74/94 74/75/95
f 74/75/95 73/74/94 75/76/96 76/77/97
f 76/77/97 75/76/96 77/78/98 78/79/99
f 78/79/99 77/78/98 79/80/100 80/81/101
f 80/81/101 79/80/100 81/49/69 82/48/68
f 23/23/25 43/42/62 45/45/65 42/41/61
f 43/42/62 23/23/25 24/22/24 47/46/66
f 47/46/66 24/22/24 25/24/27 49/50/70
f 49/50/70 25/24/27 26/25/29 51/52/72
f 51/52/72 26/25/29 27/26/31 53/54/74
f 53/54/74 27/26/31 28/27/33 55/56/76
f 55/56/76 28/27/33 29/28/35 57/58/78
f 57/58/78 29/28/35 30/29/37 59/60/80
f 59/60/80 30/29/37 31/30/39 61/62/82
f 61/62/82 31/30/39 32/31/41 63/64/84
f 63/64/84 32/31/41 33/32/43 65/66/86
f 65/66/86 33/32/43 34/33/45 67/68/88
f 67/68/88 34/33/45 35/34/47 69/70/90
f 69/70/90 35/34/47 36/35/49 71/72/92
f 71/72/92 36/35/49 37/36/51 73/74/94
f 73/74/94 37/36/51 38/37/53 75/76/96
f 75/76/96 38/37/53 39/38/55 77/78/98
f 77/78/98 39/38/55 40/39/57 79/80/100
f 79/80/100 40/39/57 41/40/59 81/49/69
f 81/49/69 41/40/59 42/41/61 45/45/65
f 44/43/63 48/47/67 22/82/102
f 48/47/67 50/51/71 22/82/102
f 50/51/71 52/53/73 22/82/102
f 52/53/73 54/55/75 22/82/102
f 54/55/75 56/57/77 22/82/102
f 56/57/77 58/59/79 22/82/102
f 58/59/79 60/61/81 22/82/102
f 60/61/81 62/63/83 22/82/102
f 62/63/83 64/65/85 22/82/102
f 64/65/85 66/67/87 22/82/102
f 66/67/87 68/69/89 22/82/102
f 68/69/89 70/71/91 22/82/102
f 70/71/91 72/73/93 22/82/102
f 72/73/93 74/75/95 22/82/102
f 74/75/95 76/77/97 22/82/102
f 76/77/97 78/79/99 22/82/102
f 78/79/99 80/81/101 22/82/102
f 80/81/101 82/48/68 22/82/102
f 82/48/68 46/44/64 22/82/102
f 46/44/64 44/43/63 22/82/102
