# This file uses centimeters as units for non-parametric coordinates.

mtllib Pilha_p.mtl
g default
v 10.107750 0.000000 -0.552435
v 9.853824 0.000000 -1.050794
v 9.458324 0.000000 -1.446293
v 8.959965 0.000000 -1.700220
v 8.407530 0.000000 -1.787716
v 7.855095 0.000000 -1.700220
v 7.356737 0.000000 -1.446293
v 6.961237 0.000000 -1.050793
v 6.707311 0.000000 -0.552435
v 6.619814 0.000000 0.000000
v 6.707311 0.000000 0.552435
v 6.961237 0.000000 1.050793
v 7.356737 0.000000 1.446293
v 7.855096 0.000000 1.700219
v 8.407530 0.000000 1.787716
v 8.959965 0.000000 1.700219
v 9.458323 0.000000 1.446293
v 9.853823 0.000000 1.050793
v 10.107749 0.000000 0.552435
v 10.195246 0.000000 0.000000
v 8.407530 0.000000 0.000000
v 8.407530 2.112693 -0.000000
v 9.408149 1.904016 -0.325121
v 9.258707 1.904016 -0.618416
v 9.025946 1.904016 -0.851177
v 8.732651 1.904016 -1.000618
v 8.407530 1.904016 -1.052112
v 8.082410 1.904016 -1.000618
v 7.789114 1.904016 -0.851177
v 7.556353 1.904016 -0.618416
v 7.406912 1.904016 -0.325121
v 7.355418 1.904016 0.000000
v 7.406912 1.904016 0.325121
v 7.556353 1.904016 0.618416
v 7.789114 1.904016 0.851177
v 8.082410 1.904016 1.000618
v 8.407530 1.904016 1.052112
v 8.732651 1.904016 1.000618
v 9.025946 1.904016 0.851177
v 9.258707 1.904016 0.618416
v 9.408148 1.904016 0.325121
v 9.459642 1.904016 0.000000
v 9.335812 1.987202 -0.301617
v 9.146111 2.112693 -0.239980
v 9.383584 1.987202 -0.000000
v 9.184120 2.112693 -0.000000
v 9.197175 1.987202 -0.573710
v 9.035805 2.112693 -0.456468
v 8.981240 1.987202 -0.789644
v 8.863998 2.112693 -0.628275
v 8.709147 1.987202 -0.928283
v 8.647509 2.112693 -0.738581
v 8.407530 1.987202 -0.976054
v 8.407530 2.112693 -0.776590
v 8.105913 1.987202 -0.928282
v 8.167551 2.112693 -0.738581
v 7.833820 1.987202 -0.789644
v 7.951062 2.112693 -0.628274
v 7.617886 1.987202 -0.573710
v 7.779256 2.112693 -0.456468
v 7.479248 1.987202 -0.301617
v 7.668949 2.112693 -0.239979
v 7.431476 1.987202 0.000000
v 7.630940 2.112693 -0.000000
v 7.479248 1.987202 0.301617
v 7.668949 2.112693 0.239979
v 7.617886 1.987202 0.573710
v 7.779256 2.112693 0.456468
v 7.833820 1.987202 0.789644
v 7.951062 2.112693 0.628274
v 8.105913 1.987202 0.928282
v 8.167551 2.112693 0.738581
v 8.407530 1.987202 0.976054
v 8.407530 2.112693 0.776590
v 8.709147 1.987202 0.928282
v 8.647509 2.112693 0.738581
v 8.981240 1.987202 0.789644
v 8.863998 2.112693 0.628274
v 9.197174 1.987202 0.573710
v 9.035805 2.112693 0.456468
v 9.335812 1.987202 0.301617
v 9.146110 2.112693 0.239979
vt 0.074218 0.212493
vt 0.039072 0.262557
vt 0.692444 0.520452
vt 0.114776 0.166703
vt 0.160232 0.125771
vt 0.210006 0.090215
vt 0.263466 0.060489
vt 0.319933 0.036970
vt 0.378688 0.019958
vt 0.438986 0.009667
vt 0.500058 0.006230
vt 0.561129 0.009690
vt 0.621422 0.020003
vt 0.680171 0.037038
vt 0.736630 0.060578
vt 0.790079 0.090324
vt 0.839839 0.125898
vt 0.885279 0.166847
vt 0.925820 0.212652
vt 0.960948 0.262729
vt 0.009786 0.316259
vt 0.239297 0.580322
vt 0.251104 0.543971
vt 0.216834 0.611245
vt 0.185915 0.633713
vt 0.149567 0.645527
vt 0.111347 0.645531
vt 0.074996 0.633724
vt 0.044072 0.611262
vt 0.021604 0.580343
vt 0.009790 0.543994
vt 0.009786 0.505774
vt 0.021593 0.469423
vt 0.044055 0.438500
vt 0.074974 0.416032
vt 0.111323 0.404217
vt 0.149543 0.404213
vt 0.185894 0.416021
vt 0.216817 0.438483
vt 0.239285 0.469402
vt 0.251100 0.505750
vt 0.238928 0.542009
vt 0.213654 0.537930
vt 0.213617 0.511577
vt 0.238914 0.507647
vt 0.228323 0.574693
vt 0.205547 0.563004
vt 0.205438 0.486527
vt 0.228282 0.474971
vt 0.208137 0.602501
vt 0.190088 0.584345
vt 0.180346 0.622710
vt 0.168790 0.599865
vt 0.147670 0.633341
vt 0.143740 0.608044
vt 0.113308 0.633355
vt 0.117387 0.608082
vt 0.080624 0.622750
vt 0.092313 0.599974
vt 0.052816 0.602564
vt 0.070972 0.584515
vt 0.032608 0.574773
vt 0.055452 0.563218
vt 0.021976 0.542098
vt 0.047273 0.538167
vt 0.021962 0.507736
vt 0.047235 0.511815
vt 0.032567 0.475052
vt 0.055343 0.486741
vt 0.052753 0.447244
vt 0.070802 0.465399
vt 0.080544 0.427035
vt 0.092099 0.449879
vt 0.113219 0.416404
vt 0.117150 0.441700
vt 0.147581 0.416389
vt 0.143502 0.441663
vt 0.180266 0.426994
vt 0.168576 0.449770
vt 0.208073 0.447180
vt 0.189918 0.465229
vt 0.130445 0.524872
vt 0.771260 0.380414
vt 0.211480 0.411918
vt 0.750587 0.350943
vt 0.726728 0.323986
vt 0.699986 0.299886
vt 0.670700 0.278950
vt 0.639244 0.261444
vt 0.606017 0.247590
vt 0.571442 0.237565
vt 0.535958 0.231495
vt 0.500016 0.229459
vt 0.464074 0.231482
vt 0.428587 0.237538
vt 0.394009 0.247550
vt 0.360776 0.261392
vt 0.329314 0.278886
vt 0.300021 0.299811
vt 0.273269 0.323901
vt 0.249400 0.350849
vt 0.228716 0.380313
vt 0.673542 0.578627
vt 0.499341 0.489868
vt 0.692444 0.459283
vt 0.673542 0.401108
vt 0.637587 0.351621
vt 0.588101 0.315667
vt 0.529925 0.296765
vt 0.468756 0.296765
vt 0.410581 0.315667
vt 0.361095 0.351621
vt 0.325140 0.401108
vt 0.306238 0.459283
vt 0.306238 0.520452
vt 0.325140 0.578627
vt 0.361095 0.628114
vt 0.410581 0.664068
vt 0.468756 0.682970
vt 0.529925 0.682970
vt 0.588101 0.664068
vt 0.637587 0.628114
vt 0.990214 0.316442
vt 0.788484 0.412026
vn 0.000000 -1.000000 0.000000
vn 0.000000 -1.000000 0.000000
vn 0.000000 -1.000000 0.000000
vn 0.000000 -1.000000 0.000000
vn 0.000000 -1.000000 0.000000
vn 0.000000 -1.000000 0.000000
vn 0.000000 -1.000000 0.000000
vn 0.000000 -1.000000 0.000000
vn 0.000000 -1.000000 0.000000
vn 0.000000 -1.000000 0.000000
vn 0.000000 -1.000000 0.000000
vn 0.000000 -1.000000 0.000000
vn 0.000000 -1.000000 0.000000
vn 0.000000 -1.000000 0.000000
vn 0.000000 -1.000000 0.000000
vn 0.000000 -1.000000 0.000000
vn 0.000000 -1.000000 0.000000
vn 0.000000 -1.000000 0.000000
vn 0.000000 -1.000000 0.000000
vn 0.000000 -1.000000 0.000000
vn 0.000000 -1.000000 0.000000
vn 0.887150 0.360383 -0.288252
vn 0.754655 0.360383 -0.548288
vn 0.750954 0.372007 -0.545600
vn 0.882799 0.372007 -0.286838
vn 0.548289 0.360383 -0.754655
vn 0.545600 0.372007 -0.750954
vn 0.288252 0.360383 -0.887150
vn 0.286838 0.372007 -0.882799
vn -0.000000 0.360383 -0.932805
vn -0.000000 0.372007 -0.928230
vn -0.288252 0.360383 -0.887150
vn -0.286839 0.372007 -0.882799
vn -0.548289 0.360383 -0.754655
vn -0.545600 0.372007 -0.750954
vn -0.754655 0.360383 -0.548289
vn -0.750954 0.372007 -0.545600
vn -0.887150 0.360383 -0.288252
vn -0.882799 0.372007 -0.286839
vn -0.932805 0.360383 0.000000
vn -0.928230 0.372007 -0.000000
vn -0.887150 0.360383 0.288252
vn -0.882799 0.372007 0.286839
vn -0.754654 0.360383 0.548289
vn -0.750954 0.372007 0.545600
vn -0.548289 0.360383 0.754655
vn -0.545600 0.372007 0.750954
vn -0.288252 0.360383 0.887150
vn -0.286839 0.372007 0.882799
vn 0.000000 0.360383 0.932805
vn 0.000000 0.372007 0.928230
vn 0.288252 0.360383 0.887150
vn 0.286839 0.372007 0.882799
vn 0.548289 0.360383 0.754655
vn 0.545600 0.372007 0.750954
vn 0.754655 0.360383 0.548288
vn 0.750954 0.372007 0.545599
vn 0.887150 0.360383 0.288252
vn 0.882799 0.372007 0.286839
vn 0.932805 0.360383 0.000001
vn 0.928230 0.372007 0.000001
vn 0.588156 0.785845 -0.191103
vn 0.238226 0.968120 -0.077404
vn 0.250486 0.968120 0.000000
vn 0.618424 0.785845 0.000001
vn 0.500316 0.785845 -0.363500
vn 0.202647 0.968120 -0.147232
vn 0.238226 0.968120 0.077404
vn 0.588156 0.785845 0.191104
vn 0.363500 0.785845 -0.500315
vn 0.147232 0.968120 -0.202647
vn 0.191103 0.785845 -0.588156
vn 0.077404 0.968120 -0.238226
vn -0.000000 0.785845 -0.618424
vn -0.000000 0.968120 -0.250486
vn -0.191104 0.785845 -0.588156
vn -0.077404 0.968120 -0.238226
vn -0.363500 0.785845 -0.500315
vn -0.147232 0.968120 -0.202647
vn -0.500315 0.785845 -0.363500
vn -0.202647 0.968120 -0.147232
vn -0.588156 0.785845 -0.191103
vn -0.238226 0.968120 -0.077404
vn -0.618424 0.785845 0.000000
vn -0.250486 0.968120 0.000000
vn -0.588156 0.785845 0.191103
vn -0.238226 0.968120 0.077404
vn -0.500315 0.785845 0.363500
vn -0.202647 0.968120 0.147232
vn -0.363500 0.785845 0.500316
vn -0.147232 0.968120 0.202647
vn -0.191103 0.785845 0.588156
vn -0.077404 0.968120 0.238226
vn 0.000000 0.785845 0.618424
vn 0.000000 0.968120 0.250486
vn 0.191104 0.785845 0.588156
vn 0.077404 0.968120 0.238226
vn 0.363500 0.785845 0.500315
vn 0.147232 0.968120 0.202647
vn 0.500315 0.785845 0.363500
vn 0.202647 0.968120 0.147232
vn 0.000000 1.000000 0.000000
s 1
g pCylinder1
usemtl initialShadingGroup
f 2/3/1 1/103/2 21/104/3
f 3/105/4 2/3/1 21/104/3
f 4/106/5 3/105/4 21/104/3
f 5/107/6 4/106/5 21/104/3
f 6/108/7 5/107/6 21/104/3
f 7/109/8 6/108/7 21/104/3
f 8/110/9 7/109/8 21/104/3
f 9/111/10 8/110/9 21/104/3
f 10/112/11 9/111/10 21/104/3
f 11/113/12 10/112/11 21/104/3
f 12/114/13 11/113/12 21/104/3
f 13/115/14 12/114/13 21/104/3
f 14/116/15 13/115/14 21/104/3
f 15/117/16 14/116/15 21/104/3
f 16/118/17 15/117/16 21/104/3
f 17/119/18 16/118/17 21/104/3
f 18/120/19 17/119/18 21/104/3
f 19/121/20 18/120/19 21/104/3
f 20/122/21 19/121/20 21/104/3
f 1/103/2 20/122/21 21/104/3
s 2
f 1/2/22 2/1/23 24/101/24 23/102/25
f 2/1/23 3/4/26 25/100/27 24/101/24
f 3/4/26 4/5/28 26/99/29 25/100/27
f 4/5/28 5/6/30 27/98/31 26/99/29
f 5/6/30 6/7/32 28/97/33 27/98/31
f 6/7/32 7/8/34 29/96/35 28/97/33
f 7/8/34 8/9/36 30/95/37 29/96/35
f 8/9/36 9/10/38 31/94/39 30/95/37
f 9/10/38 10/11/40 32/93/41 31/94/39
f 10/11/40 11/12/42 33/92/43 32/93/41
f 11/12/42 12/13/44 34/91/45 33/92/43
f 12/13/44 13/14/46 35/90/47 34/91/45
f 13/14/46 14/15/48 36/89/49 35/90/47
f 14/15/48 15/16/50 37/88/51 36/89/49
f 15/16/50 16/17/52 38/87/53 37/88/51
f 16/17/52 17/18/54 39/86/55 38/87/53
f 17/18/54 18/19/56 40/85/57 39/86/55
f 18/19/56 19/20/58 41/83/59 40/85/57
f 19/20/58 20/123/60 42/124/61 41/83/59
f 20/21/60 1/2/22 23/102/25 42/84/61
f 43/42/62 44/43/63 46/44/64 45/45/65
f 44/43/63 43/42/62 47/46/66 48/47/67
f 45/45/65 46/44/64 82/48/68 81/49/69
f 48/47/67 47/46/66 49/50/70 50/51/71
f 50/51/71 49/50/70 51/52/72 52/53/73
f 52/53/73 51/52/72 53/54/74 54/55/75
f 54/55/75 53/54/74 55/56/76 56/57/77
f 56/57/77 55/56/76 57/58/78 58/59/79
f 58/59/79 57/58/78 59/60/80 60/61/81
f 60/61/81 59/60/80 61/62/82 62/63/83
f 62/63/83 61/62/82 63/64/84 64/65/85
f 64/65/85 63/64/84 65/66/86 66/67/87
f 66/67/87 65/66/86 67/68/88 68/69/89
f 68/69/89 67/68/88 69/70/90 70/71/91
f 70/71/91 69/70/90 71/72/92 72/73/93
f 72/73/93 71/72/92 73/74/94 74/75/95
f 74/75/95 73/74/94 75/76/96 76/77/97
f 76/77/97 75/76/96 77/78/98 78/79/99
f 78/79/99 77/78/98 79/80/100 80/81/101
f 80/81/101 79/80/100 81/49/69 82/48/68
f 23/23/25 43/42/62 45/45/65 42/41/61
f 43/42/62 23/23/25 24/22/24 47/46/66
f 47/46/66 24/22/24 25/24/27 49/50/70
f 49/50/70 25/24/27 26/25/29 51/52/72
f 51/52/72 26/25/29 27/26/31 53/54/74
f 53/54/74 27/26/31 28/27/33 55/56/76
f 55/56/76 28/27/33 29/28/35 57/58/78
f 57/58/78 29/28/35 30/29/37 59/60/80
f 59/60/80 30/29/37 31/30/39 61/62/82
f 61/62/82 31/30/39 32/31/41 63/64/84
f 63/64/84 32/31/41 33/32/43 65/66/86
f 65/66/86 33/32/43 34/33/45 67/68/88
f 67/68/88 34/33/45 35/34/47 69/70/90
f 69/70/90 35/34/47 36/35/49 71/72/92
f 71/72/92 36/35/49 37/36/51 73/74/94
f 73/74/94 37/36/51 38/37/53 75/76/96
f 75/76/96 38/37/53 39/38/55 77/78/98
f 77/78/98 39/38/55 40/39/57 79/80/100
f 79/80/100 40/39/57 41/40/59 81/49/69
f 81/49/69 41/40/59 42/41/61 45/45/65
f 44/43/63 48/47/67 22/82/102
f 48/47/67 50/51/71 22/82/102
f 50/51/71 52/53/73 22/82/102
f 52/53/73 54/55/75 22/82/102
f 54/55/75 56/57/77 22/82/102
f 56/57/77 58/59/79 22/82/102
f 58/59/79 60/61/81 22/82/102
f 60/61/81 62/63/83 22/82/102
f 62/63/83 64/65/85 22/82/102
f 64/65/85 66/67/87 22/82/102
f 66/67/87 68/69/89 22/82/102
f 68/69/89 70/71/91 22/82/102
f 70/71/91 72/73/93 22/82/102
f 72/73/93 74/75/95 22/82/102
f 74/75/95 76/77/97 22/82/102
f 76/77/97 78/79/99 22/82/102
f 78/79/99 80/81/101 22/82/102
f 80/81/101 82/48/68 22/82/102
f 82/48/68 46/44/64 22/82/102
f 46/44/64 44/43/63 22/82/102
