# This file uses centimeters as units for non-parametric coordinates.

mtllib Arma_EVE.mtl
g default
v 1.058881 -0.330180 -0.251608
v 0.924167 -0.212301 0.388889
v 1.058881 0.080163 -0.443832
v 0.924167 0.092395 0.388889
v 1.213850 0.472575 -0.627656
v 1.213850 0.616156 0.388889
v 1.558881 0.472575 -0.627656
v 1.558881 0.616156 0.388889
v 1.903912 0.472575 -0.627656
v 1.903912 0.616156 0.388889
v 2.058881 0.080163 -0.443832
v 2.193596 0.092395 0.388889
v 2.058881 -0.330180 -0.251608
v 2.193596 -0.212301 0.388889
v 1.558881 -0.546825 -0.150122
v 1.558881 -0.690406 0.388889
v 1.558881 0.080163 -0.443832
v 2.193596 -0.440146 2.332839
v 2.193596 0.461817 2.332839
v 0.924167 -0.440146 2.332839
v 0.924167 0.461817 2.332839
v 1.903912 1.363780 2.332839
v 1.558881 1.363780 2.332839
v 1.213850 1.363780 2.332839
v 2.016121 0.002653 5.176016
v 1.558881 -0.236585 5.176016
v 2.062138 0.461817 4.980142
v 1.101642 0.002653 5.176016
v 1.055625 0.461817 4.980142
v 1.802168 0.901180 4.784268
v 1.558881 0.901180 4.784268
v 1.315594 0.901180 4.784268
v 1.827698 0.134184 5.126204
v 1.558881 0.134184 5.126204
v 1.827698 0.445409 4.987456
v 1.290064 0.134184 5.126204
v 1.290064 0.445409 4.987456
v 1.744382 0.756633 4.848708
v 1.558881 0.756633 4.848708
v 1.373381 0.756633 4.848708
v 1.759220 0.122249 5.979876
v 1.558881 0.122249 5.979876
v 1.827698 0.443853 6.092495
v 1.558881 0.443853 6.092495
v 1.358543 0.122249 5.979876
v 1.290064 0.443853 6.092495
v 1.744382 0.765456 6.205113
v 1.558881 0.765456 6.205113
v 1.373381 0.765456 6.205113
v 2.058881 -0.944200 1.186743
v 1.558881 -1.422306 1.186743
v 2.058881 -0.952980 2.482710
v 1.558881 -1.431085 2.482710
v 1.058881 -0.944200 1.186743
v 1.058881 -0.952980 2.482710
v 2.058881 -0.490379 4.378161
v 1.558881 -0.968484 4.378161
v 1.058881 -0.490379 4.378161
v 1.558881 1.151861 0.916774
v 1.903912 1.151861 0.916774
v 1.558881 1.899485 1.970446
v 1.903912 1.899485 1.970446
v 1.213850 1.151861 0.916774
v 1.213850 1.899485 1.970446
v 1.558881 1.117460 -0.339393
v 1.903912 1.117460 -0.339393
v 1.558881 1.933886 0.569213
v 1.903912 1.933886 0.569213
v 1.213850 1.117460 -0.339393
v 1.213850 1.933886 0.569213
vt 0.781988 0.811208
vt 0.698853 0.054281
vt 0.628263 0.301139
vt 0.833163 0.799731
vt 0.843415 0.582929
vt 0.885884 0.796101
vt 0.829464 0.552055
vt 0.167658 0.930552
vt 0.855178 0.881538
vt 0.134649 0.941934
vt 0.633277 0.554923
vt 0.106093 0.897468
vt 0.638892 0.123231
vt 0.084756 0.849558
vt 0.627748 0.038439
vt 0.767605 0.866852
vt 0.257426 0.921042
vt 0.035872 0.040769
vt 0.029679 0.079493
vt 0.004079 0.074538
vt 0.275444 0.911765
vt 0.261380 0.875158
vt 0.018628 0.118800
vt 0.241173 0.820480
vt 0.242442 0.838985
vt 0.847310 0.846672
vt 0.844371 0.172353
vt 0.515551 0.072194
vt 0.356464 0.116589
vt 0.335475 0.045290
vt 0.380259 0.569080
vt 0.390958 0.170561
vt 0.770193 0.167101
vt 0.753601 0.331431
vt 0.694534 0.306655
vt 0.376668 0.331450
vt 0.594451 0.838773
vt 0.309422 0.780954
vt 0.606405 0.661739
vt 0.459464 0.739879
vt 0.158376 0.783283
vt 0.575218 0.663809
vt 0.481960 0.767672
vt 0.677068 0.788306
vt 0.134393 0.227204
vt 0.755907 0.580935
vt 0.043700 0.535081
vt 0.047836 0.306433
vt 0.682512 0.569124
vt 0.619219 0.667933
vt 0.051242 0.423786
vt 0.062014 0.593312
vt 0.560366 0.843959
vt 0.044822 0.344032
vt 0.059091 0.363249
vt 0.670105 0.685906
vt 0.145785 0.026388
vt 0.140502 0.000000
vt 0.168987 0.059866
vt 0.385956 0.903114
vt 0.401736 0.865563
vt 0.191593 0.094025
vt 0.415516 0.808953
vt 0.416792 0.827468
vt 0.604268 0.820831
vt 0.175786 0.674599
vt 0.016039 0.712918
vt 0.000000 0.744132
vt 0.568647 0.838524
vt 0.423541 0.917161
vt 0.030301 0.416195
vt 0.044038 0.374267
vt 0.031279 0.359402
vt 0.045267 0.585097
vt 0.024409 0.546218
vt 0.619008 0.692972
vt 0.000000 0.297119
vt 0.006516 0.506971
vt 0.330058 0.753626
vt 0.163343 0.819566
vt 0.605977 0.742229
vt 0.774480 0.937139
vt 0.327687 0.196657
vt 0.010635 1.000000
vt 0.827437 0.339944
vt 0.110228 0.156901
vt 0.021442 0.259361
vt 0.497716 0.000000
vt 0.677651 0.790294
vt 0.237357 0.885298
vt 0.021212 0.137168
vt 0.035304 0.601964
vt 0.194171 0.112404
vt 0.016325 0.035417
vt 0.636561 0.713477
vt 0.386242 0.930024
vt 0.051327 0.614729
vt 0.152200 0.880800
vt 0.916846 0.780936
vt 0.075491 0.793041
vt 0.005699 0.778330
vt 0.784302 0.050790
vt 0.742217 0.736088
vt 0.000746 0.862488
vt 0.000000 0.897957
vt 0.004201 0.966085
vt 0.858449 0.661942
vt 0.863499 0.914997
vt 0.827398 0.677024
vt 0.770229 0.714318
vt 0.626748 0.621861
vt 0.344621 0.227205
vt 0.355606 0.710362
vt 0.648150 0.807104
vt 0.610128 0.236374
vt 0.366937 0.677324
vt 0.405715 0.432405
vt 0.391202 0.464601
vt 0.638246 0.334912
vt 0.637200 0.519924
vt 0.017519 0.481737
vt 0.023200 0.310914
vt 0.034795 0.480886
vt 0.019548 0.457966
vt 0.031999 0.021123
vt 0.275716 0.931787
vt 0.000000 0.115987
vt 0.224798 0.845588
vt 0.731112 0.837509
vt 0.120815 0.804806
vt 0.140963 0.975827
vt 0.896454 0.829378
vt 0.139341 0.812434
vt 0.446417 0.759495
vt 0.311061 0.815707
vt 0.551027 0.638314
vt 0.747760 0.593749
vt 0.210436 0.665181
vt 0.572001 0.920428
vt 0.390953 0.906154
vt 0.634894 0.723431
vt 0.762179 0.625595
vt 0.766158 0.903681
vt 0.606087 0.915242
vn -0.983317 -0.047224 -0.175663
vn -0.983317 -0.047224 -0.175663
vn -0.958416 0.252946 -0.132129
vn -0.941499 0.314479 -0.121169
vn -0.902851 0.417926 -0.100984
vn -0.902851 0.417926 -0.100984
vn -0.000000 0.990172 -0.139856
vn -0.000000 0.990172 -0.139856
vn -0.000000 0.990172 -0.139856
vn -0.000000 0.990172 -0.139856
vn -0.000000 0.990172 -0.139856
vn -0.000000 0.990172 -0.139856
vn 0.902851 0.417926 -0.100984
vn 0.902851 0.417926 -0.100984
vn 0.958416 0.252946 -0.132129
vn 0.941499 0.314479 -0.121169
vn 0.983317 -0.047224 -0.175664
vn 0.983317 -0.047224 -0.175664
vn 0.515550 -0.853349 -0.077477
vn 0.515550 -0.853349 -0.077477
vn 0.000000 -0.995904 -0.090420
vn 0.000000 -0.995904 -0.090420
vn -0.515550 -0.853349 -0.077477
vn -0.515550 -0.853350 -0.077477
vn 0.000000 -0.330502 0.943805
vn 0.000000 -0.330503 0.943805
vn 0.000000 -0.330501 0.943806
vn 0.000000 -0.330501 0.943806
vn 0.000000 -0.330502 0.943805
vn 0.000000 -0.330501 0.943806
vn 0.000000 -0.330499 0.943806
vn 0.000000 -0.330499 0.943806
vn 0.000000 -0.330499 0.943806
vn -0.000000 -0.424208 -0.905565
vn 0.000000 -0.424208 -0.905565
vn 0.000000 -0.424208 -0.905565
vn -0.000000 -0.424208 -0.905565
vn 0.000000 -0.424208 -0.905565
vn 0.000000 -0.424208 -0.905565
vn 0.000000 -0.424208 -0.905565
vn 0.000000 -0.424208 -0.905565
vn 0.000000 -0.424208 -0.905565
vn 0.691097 -0.722745 -0.004896
vn 0.691097 -0.722745 -0.004896
vn 0.691097 -0.722745 -0.004896
vn 0.691097 -0.722745 -0.004896
vn 1.000000 0.000000 -0.000000
vn 1.000000 0.000000 -0.000000
vn 1.000000 0.000000 -0.000000
vn 1.000000 0.000000 -0.000000
vn -0.691097 -0.722745 -0.004896
vn -0.691097 -0.722745 -0.004896
vn -0.691097 -0.722745 -0.004896
vn -0.691097 -0.722745 -0.004896
vn -1.000000 0.000000 -0.000000
vn -1.000000 0.000000 -0.000000
vn -1.000000 0.000000 -0.000000
vn -1.000000 0.000000 -0.000000
vn 0.921056 0.374287 -0.107538
vn 0.921056 0.374287 -0.107538
vn 0.921056 0.374287 -0.107538
vn 0.921056 0.374287 -0.107538
vn -0.000000 0.743831 -0.668368
vn -0.000000 0.743831 -0.668368
vn -0.000000 0.743831 -0.668368
vn -0.000000 0.743831 -0.668368
vn -0.000000 0.743831 -0.668368
vn -0.000000 0.743831 -0.668368
vn -0.000000 0.743831 -0.668368
vn -0.000000 0.743831 -0.668368
vn -0.921056 0.374287 -0.107538
vn -0.921056 0.374287 -0.107538
vn -0.921056 0.374287 -0.107538
vn -0.921056 0.374287 -0.107538
vn 0.680598 -0.711765 0.173712
vn 0.680598 -0.711765 0.173712
vn 0.680598 -0.711765 0.173712
vn 0.680598 -0.711765 0.173712
vn 0.997983 -0.025365 0.058199
vn 0.997983 -0.025365 0.058199
vn 0.997983 -0.025365 0.058199
vn 0.997983 -0.025365 0.058199
vn -0.680598 -0.711765 0.173712
vn -0.680598 -0.711766 0.173712
vn -0.680598 -0.711765 0.173712
vn -0.680598 -0.711766 0.173712
vn -0.997983 -0.025365 0.058199
vn -0.997983 -0.025365 0.058199
vn -0.997983 -0.025365 0.058199
vn -0.997983 -0.025365 0.058199
vn 0.918557 0.387681 0.077186
vn 0.918556 0.387681 0.077186
vn 0.918556 0.387681 0.077186
vn 0.918557 0.387681 0.077186
vn 0.000000 0.982657 0.185433
vn 0.000000 0.982657 0.185433
vn 0.000000 0.982657 0.185433
vn 0.000000 0.982657 0.185433
vn 0.000000 0.982657 0.185433
vn 0.000000 0.982657 0.185433
vn 0.000000 0.982657 0.185433
vn 0.000000 0.982657 0.185433
vn -0.918556 0.387681 0.077186
vn -0.918557 0.387681 0.077186
vn -0.918557 0.387681 0.077186
vn -0.918556 0.387681 0.077186
vn -0.057184 0.173545 0.983164
vn -0.057184 0.173545 0.983164
vn -0.057184 0.173545 0.983164
vn -0.057184 0.173545 0.983164
vn 0.016024 0.397540 0.917445
vn 0.016024 0.397540 0.917445
vn 0.016024 0.397540 0.917445
vn 0.016024 0.397540 0.917445
vn 0.057184 0.173545 0.983164
vn 0.057184 0.173545 0.983164
vn 0.057184 0.173545 0.983164
vn 0.057184 0.173545 0.983164
vn -0.016024 0.397540 0.917445
vn -0.016024 0.397540 0.917445
vn -0.016024 0.397540 0.917445
vn -0.016024 0.397540 0.917445
vn -0.000007 0.407180 0.913348
vn -0.000007 0.407180 0.913348
vn -0.000007 0.407180 0.913348
vn -0.000007 0.407180 0.913348
vn 0.000000 0.407175 0.913350
vn 0.000000 0.407175 0.913350
vn 0.000000 0.407175 0.913350
vn 0.000000 0.407175 0.913350
vn 0.000000 0.407175 0.913350
vn 0.000000 0.407175 0.913350
vn 0.000000 0.407175 0.913350
vn 0.000000 0.407175 0.913350
vn 0.000007 0.407181 0.913348
vn 0.000007 0.407181 0.913348
vn 0.000007 0.407181 0.913348
vn 0.000007 0.407181 0.913348
vn 0.000000 -0.999902 -0.013980
vn 0.000000 -0.999902 -0.013980
vn 0.000000 -0.999902 -0.013980
vn 0.000000 -0.999902 -0.013980
vn 0.993770 -0.106132 0.034012
vn 0.993770 -0.106132 0.034012
vn 0.993770 -0.106132 0.034012
vn 0.993770 -0.106132 0.034012
vn 0.000000 -0.999902 -0.013980
vn 0.000000 -0.999902 -0.013980
vn 0.000000 -0.999902 -0.013980
vn 0.000000 -0.999902 -0.013980
vn -0.993770 -0.106132 0.034012
vn -0.993770 -0.106132 0.034012
vn -0.993770 -0.106132 0.034012
vn -0.993770 -0.106132 0.034012
vn 0.967044 0.254607 -0.000752
vn 0.967044 0.254607 -0.000752
vn 0.967044 0.254607 -0.000752
vn 0.967044 0.254607 -0.000752
vn -0.000000 0.999979 -0.006505
vn -0.000000 0.999979 -0.006505
vn -0.000000 0.999979 -0.006505
vn -0.000000 0.999979 -0.006505
vn -0.000000 0.999979 -0.006505
vn -0.000000 0.999979 -0.006505
vn -0.000000 0.999979 -0.006505
vn -0.000000 0.999979 -0.006505
vn -0.967044 0.254607 -0.000752
vn -0.967044 0.254607 -0.000752
vn -0.967044 0.254607 -0.000752
vn -0.967044 0.254607 -0.000752
vn 0.541012 -0.642007 -0.543261
vn 0.541012 -0.642007 -0.543261
vn 0.541012 -0.642007 -0.543261
vn 0.541012 -0.642007 -0.543261
vn 0.974595 -0.223379 -0.016314
vn 0.974595 -0.223379 -0.016314
vn 0.974595 -0.223379 -0.016314
vn 0.974595 -0.223379 -0.016314
vn -0.541012 -0.642007 -0.543261
vn -0.541012 -0.642007 -0.543261
vn -0.541012 -0.642007 -0.543261
vn -0.541012 -0.642007 -0.543261
vn -0.974595 -0.223378 -0.016314
vn -0.974595 -0.223378 -0.016314
vn -0.974595 -0.223378 -0.016314
vn -0.974595 -0.223378 -0.016314
vn 0.989525 -0.130384 0.061973
vn 0.989525 -0.130384 0.061973
vn 0.989525 -0.130384 0.061973
vn 0.989525 -0.130384 0.061973
vn 0.507306 -0.676962 0.533257
vn 0.507307 -0.676961 0.533257
vn 0.507307 -0.676962 0.533257
vn 0.507307 -0.676961 0.533257
vn -0.507306 -0.676962 0.533257
vn -0.507306 -0.676962 0.533257
vn -0.507306 -0.676961 0.533257
vn -0.507307 -0.676962 0.533257
vn -0.989525 -0.130383 0.061973
vn -0.989525 -0.130383 0.061973
vn -0.989525 -0.130383 0.061973
vn -0.989525 -0.130383 0.061973
vn -0.000000 0.701889 -0.712287
vn -0.000000 0.701889 -0.712287
vn -0.000000 0.701889 -0.712287
vn -0.000000 0.701889 -0.712287
vn 0.000000 0.560313 0.828281
vn 0.000000 0.560313 0.828281
vn 0.000000 0.560313 0.828281
vn 0.000000 0.560313 0.828281
vn 1.000000 0.000000 0.000000
vn 1.000000 0.000000 0.000000
vn 1.000000 0.000000 0.000000
vn 1.000000 0.000000 0.000000
vn -0.000000 0.701889 -0.712287
vn -0.000000 0.701889 -0.712287
vn -0.000000 0.701889 -0.712287
vn -0.000000 0.701889 -0.712287
vn -1.000000 0.000000 0.000000
vn -1.000000 0.000000 0.000000
vn -1.000000 0.000000 0.000000
vn -1.000000 0.000000 0.000000
vn 0.000000 0.560313 0.828281
vn 0.000000 0.560313 0.828281
vn 0.000000 0.560313 0.828281
vn 0.000000 0.560313 0.828281
vn 0.000000 -0.999625 0.027375
vn 0.000000 -0.999625 0.027375
vn 0.000000 -0.999625 0.027375
vn 0.000000 -0.999625 0.027375
vn 0.000000 0.999699 0.024543
vn 0.000000 0.999699 0.024543
vn 0.000000 0.999699 0.024543
vn 0.000000 0.999699 0.024543
vn 1.000000 0.000000 0.000000
vn 1.000000 0.000000 0.000000
vn 1.000000 0.000000 0.000000
vn 1.000000 0.000000 0.000000
vn 0.000000 -0.999625 0.027375
vn 0.000000 -0.999625 0.027375
vn 0.000000 -0.999625 0.027375
vn 0.000000 -0.999625 0.027375
vn -1.000000 0.000000 0.000000
vn -1.000000 0.000000 0.000000
vn -1.000000 0.000000 0.000000
vn -1.000000 0.000000 0.000000
vn 0.000000 0.999699 0.024543
vn 0.000000 0.999699 0.024543
vn 0.000000 0.999699 0.024543
vn 0.000000 0.999699 0.024543
s 1
g pCube4
usemtl initialShadingGroup
f 1/1/1 2/103/2 4/110/3 3/4/4
f 3/4/4 4/110/3 6/109/5 5/6/6
s 2
f 5/6/7 6/109/8 8/107/9 7/99/10
f 7/131/10 8/84/9 10/106/11 9/10/12
s 3
f 9/10/13 10/106/14 12/105/15 11/12/16
f 11/12/16 12/105/15 14/104/17 13/14/18
s 4
f 13/14/19 14/104/20 16/101/21 15/100/22
f 15/129/22 16/89/21 2/103/23 1/1/24
s 5
f 42/94/25 41/18/26 43/19/27 44/20/28
f 45/21/29 42/17/25 44/90/28 46/22/30
f 44/20/28 43/19/27 47/23/31 48/127/32
f 46/22/30 44/90/28 48/128/32 49/25/33
s 6
f 13/14/34 15/130/35 17/98/36 11/12/37
f 15/16/35 1/1/38 3/4/39 17/26/36
f 11/12/37 17/98/36 7/8/40 9/10/41
f 17/26/36 3/4/39 5/6/42 7/132/40
s off
f 51/88/43 50/28/44 52/29/45 53/30/46
f 14/120/47 12/11/48 19/31/49 18/118/50
f 54/33/51 51/27/52 53/85/53 55/34/54
f 4/3/55 2/119/56 20/117/57 21/36/58
f 12/11/59 10/111/60 22/116/61 19/31/62
f 66/38/63 65/135/64 67/80/65 68/41/66
f 65/136/67 69/42/68 70/43/69 67/40/70
f 6/115/71 4/3/72 21/36/73 24/112/74
f 53/30/75 52/29/76 56/45/77 57/86/78
f 18/118/79 19/31/80 27/47/81 25/121/82
f 55/34/83 53/85/84 57/46/85 58/49/86
f 21/36/87 20/117/88 28/123/89 29/51/90
f 19/31/91 22/116/92 30/52/93 27/47/94
f 22/116/95 23/113/96 31/97/97 30/52/98
f 23/83/99 24/112/100 32/55/101 31/54/102
f 24/112/103 21/36/104 29/51/105 32/55/106
f 26/87/107 25/48/108 33/122/109 34/77/110
f 25/121/111 27/47/112 35/75/113 33/78/114
f 28/50/115 26/56/116 34/95/117 36/76/118
f 29/51/119 28/123/120 36/124/121 37/71/122
f 27/47/123 30/52/124 38/74/125 35/75/126
f 30/52/127 31/97/128 39/92/129 38/74/130
f 31/54/131 32/55/132 40/72/133 39/73/134
f 32/55/135 29/51/136 37/71/137 40/72/138
f 34/58/139 33/57/140 41/18/141 42/125/142
f 33/57/143 35/59/144 43/19/145 41/18/146
f 36/60/147 34/96/148 42/126/149 45/21/150
f 37/61/151 36/60/152 45/21/153 46/22/154
f 35/59/155 38/62/156 47/23/157 43/19/158
f 38/62/159 39/93/160 48/91/161 47/23/162
f 39/63/163 40/64/164 49/25/165 48/24/166
f 40/64/167 37/61/168 46/22/169 49/25/170
f 16/15/171 14/13/172 50/28/173 51/88/174
f 14/13/175 18/32/176 52/29/177 50/28/178
f 2/2/179 16/102/180 51/27/181 54/33/182
f 20/35/183 2/2/184 54/33/185 55/34/186
f 18/32/187 25/48/188 56/45/189 52/29/190
f 25/48/191 26/87/192 57/86/193 56/45/194
f 26/56/195 28/50/196 58/49/197 57/46/198
f 28/50/199 20/35/200 55/34/201 58/49/202
f 10/9/203 8/108/204 59/82/205 60/143/206
f 23/53/207 22/37/208 62/144/209 61/139/210
f 22/37/211 10/9/212 60/143/213 62/144/214
f 8/7/215 6/5/216 63/142/217 59/137/218
f 6/5/219 24/44/220 64/141/221 63/142/222
f 24/44/223 23/114/224 61/81/225 64/141/226
f 60/66/227 59/138/228 65/79/229 66/38/230
f 61/68/231 62/67/232 68/41/233 67/133/234
f 62/67/235 60/66/236 66/38/237 68/41/238
f 59/65/239 63/69/240 69/42/241 65/39/242
f 63/69/243 64/70/244 70/43/245 69/42/246
f 64/70/247 61/140/248 67/134/249 70/43/250
